<?xml version="1.0" encoding="utf-8"?>
<!-- Generator: Adobe Illustrator 21.0.0, SVG Export Plug-In . SVG Version: 6.00 Build 0)  -->
<svg version="1.1" id="Layer_1" xmlns="http://www.w3.org/2000/svg" xmlns:xlink="http://www.w3.org/1999/xlink" x="0px" y="0px"
	 viewBox="0 0 700 700" style="enable-background:new 0 0 700 700;" xml:space="preserve">
<path d="M146,556c29.7,29.7,67.2,47,101.4,47c21.8,0,40.9-7.3,54.3-20.7c17.4-17.4,38.1-56.6,49.8-95.8
	c3.4-11.2,11.2-20.2,21.3-25.2c15.7-7.8,28.6-16.2,35.8-23.5c14.6-14.6,20.2-36.4,15.7-60.5c-3.4-18.5-12.9-37-26.3-53.2
	l128.2-128.2l3.9,3.9c5,5,13.4,5.6,19,0.6l49.3-42c6.2-5,6.7-14.6,0.6-20.7l-35.3-34.7c-5.6-5.6-15.1-5.6-20.7,0.6l-42,49.3
	c-4.5,5.6-4.5,14,0.6,19l3.9,3.9L378.4,304c-21.3-17.4-46.5-28-69.4-28c-17.9,0-33,6.2-44.2,16.8c-7.3,7.3-15.7,20.2-23.5,35.8
	c-5,10.1-14,17.9-25.2,21.3c-39.2,11.8-78.4,32.5-95.8,49.8c-17.9,17.9-24.6,44.8-19,75C106.3,503.9,122.5,532.4,146,556
	C175.7,585.6,122.5,532.4,146,556C175.7,585.6,122.5,532.4,146,556C175.7,585.6,122.5,532.4,146,556L146,556z M554.8,133.7
	l13.4,13.4l-27.4,23.5l-9.5-9.5L554.8,133.7z M139.9,419.9c11.8-11.8,45.4-30.8,84-42.6c18.5-5.6,33.6-18.5,42-35.8
	c6.2-12.9,12.9-23.5,18.5-28.6c7.3-7.3,17.4-9,24.6-9c16.2,0,33.6,7.3,49.8,19.6L317.4,365c-9.5-2.8-20.2-0.6-28,7.3
	c-11.2,11.2-11.2,29.1,0,40.3s29.1,11.2,40.3,0c7.8-7.8,10.1-18.5,7.3-28l41.4-41.4c9.5,12.3,16.2,25.8,18.5,38.6
	c2.8,15.1,0,27.4-7.8,35.3c-5,5-15.7,11.8-28.6,18.5c-16.8,8.4-30.2,23.5-35.8,42c-11.8,38.6-30.8,72.2-42.6,84
	c-10.6,10.6-24.6,12.9-34.7,12.9c-26.3,0-57.1-14.6-81.2-38.6c-19.6-19.6-33-43.1-37.5-66.1C124.8,449,128.7,431.1,139.9,419.9
	L139.9,419.9z"/>
<path d="M230,511.2c2.8,2.8,6.2,3.9,10.1,3.9c3.4,0,7.3-1.1,10.1-3.9c5.6-5.6,5.6-14.6,0-19.6l-39.8-39.8c-5.6-5.6-14.6-5.6-19.6,0
	c-5.6,5.6-5.6,14.6,0,19.6L230,511.2z"/>
</svg>
