<?xml version="1.0" encoding="utf-8"?>
<!-- Generator: Adobe Illustrator 21.0.0, SVG Export Plug-In . SVG Version: 6.00 Build 0)  -->
<svg version="1.1" id="Layer_1" xmlns="http://www.w3.org/2000/svg" xmlns:xlink="http://www.w3.org/1999/xlink" x="0px" y="0px"
	 viewBox="0 0 700 700" style="enable-background:new 0 0 700 700;" xml:space="preserve">
<path d="M293,525.3c7.8,0,14-6.2,14-14V182c0-7.8-6.2-14-14-14s-14,6.2-14,14v329.3C279,518.6,285.2,525.3,293,525.3z"/>
<path d="M237,546c7.8,0,14-6.2,14-14V168c0-7.8-6.2-14-14-14s-14,6.2-14,14v364C223,539.8,229.2,546,237,546z"/>
<path d="M349,469.3c7.8,0,14-6.2,14-14V210c0-7.8-6.2-14-14-14s-14,6.2-14,14v245.3C335,462.6,341.2,469.3,349,469.3z"/>
<path d="M405,413.3c7.8,0,14-6.2,14-14v-140c0-7.8-6.2-14-14-14s-14,6.2-14,14v140C391,406.6,397.2,413.3,405,413.3z"/>
<path d="M461,357.3c7.8,0,14-6.2,14-14v-42c0-7.8-6.2-14-14-14s-14,6.2-14,14v42C447,350.6,453.2,357.3,461,357.3z"/>
<path d="M97.6,583.5c-2.8,9,3.9,18.5,13.4,18.5h252c12.3,0,18.5-15.1,10.1-24.1c-8.4-8.4-13.4-20.2-13.4-31.9
	c0-11.8,4.5-23.5,13.4-31.9l224-224c8.4-8.4,2.2-24.1-10.1-24.1c-58.8,0-115.9-24.6-156.8-66.1c-38.6-39.2-84-69.4-136.6-86.8
	C261.6,103,228.6,98,195,98h-84c-9.5,0-16.2,9.5-13.4,18.5l13.4,39.8v387.5L97.6,583.5z M301.4,574c10.6-6.2,20.7-12.9,30.2-20.7
	c0.6,7.3,2.2,14,5,20.7H301.4z M195,156.2l10.1-30.2c75,2.2,144.5,32.5,197.7,85.7l7.8,7.8c38.6,39.8,90.2,65,145,72.2L352.9,493.9
	l-24.6,24.6c-33,33-76.7,52.6-123.8,54.9l-10.1-30.2v-387L195,156.2z M175.4,126l-4.5,14h-35.8l-4.5-14H175.4z M167,168v364h-28V168
	L167,168z M135.1,560h35.8l4.5,14h-44.8L135.1,560z"/>
</svg>
