<?xml version="1.0" encoding="utf-8"?>
<!-- Generator: Adobe Illustrator 21.0.0, SVG Export Plug-In . SVG Version: 6.00 Build 0)  -->
<svg version="1.1" id="Layer_1" xmlns="http://www.w3.org/2000/svg" xmlns:xlink="http://www.w3.org/1999/xlink" x="0px" y="0px"
	 viewBox="0 0 700 700" style="enable-background:new 0 0 700 700;" xml:space="preserve">
<path d="M113,602h476c7.8,0,14-6.2,14-14V112c0-7.8-6.2-14-14-14H113c-7.8,0-14,6.2-14,14v476C99,595.8,105.2,602,113,602z
	 M484.3,378h14c7.8,0,14-6.2,14-14V126H575v448h-90.7L484.3,378z M365,378h14c7.8,0,14-6.2,14-14V126h35.3v238c0,7.8,6.2,14,14,14
	h14v196H365V378z M246.3,378h14c7.8,0,14-6.2,14-14V126h35.3v238c0,7.8,6.2,14,14,14h14v196h-91.3V378z M127,126h63.3v238
	c0,7.8,6.2,14,14,14h14v196H127L127,126z"/>
</svg>
