<?xml version="1.0" encoding="utf-8"?>
<!-- Generator: Adobe Illustrator 21.0.0, SVG Export Plug-In . SVG Version: 6.00 Build 0)  -->
<svg version="1.1" id="Layer_1" xmlns="http://www.w3.org/2000/svg" xmlns:xlink="http://www.w3.org/1999/xlink" x="0px" y="0px"
	 viewBox="0 0 700 700" style="enable-background:new 0 0 700 700;" xml:space="preserve">
<path d="M598.1,158c-5.6-5.6-14.6-5.6-19.6,0L504,232.4c-42-14-95.2-22.4-154-22.4c-143.9,0-252,48.2-252,112v168v0.6v0.6
	C99.1,554.4,207.2,602,350,602s250.9-47.6,252-110.9v-0.6V490V322c0-31.4-26.3-58.8-69.4-79l65.5-65.5
	C603.1,172.5,603.1,163.6,598.1,158C592.5,152.9,603.1,163.6,598.1,158L598.1,158z M126,490.6l8.4-58.8l25.8,101.4
	C138.9,519.7,126.6,505.2,126,490.6L126,490.6z M154,393.7c22.4,12.3,50.4,21.8,82.3,28.6l-50.4,97.4L154,393.7z M201.6,551.6
	l56-109.2l68.9,131C277.2,571.8,234.6,563.4,201.6,551.6L201.6,551.6z M282.8,430.1c21.3,2.2,43.7,3.9,67.2,3.9s45.9-1.1,67.2-3.9
	L350,557.8L282.8,430.1z M373.5,573.5l68.9-131l56,109.2C465.4,563.4,422.8,571.8,373.5,573.5L373.5,573.5z M463.7,422.8
	c32.5-6.7,60.5-16.8,82.3-28.6l-32.5,126L463.7,422.8z M539.3,533.2L565,431.8l9,58.8C573.4,505.2,561.1,519.7,539.3,533.2
	L539.3,533.2z M574,322c0,39.8-91.8,84-224,84s-224-44.2-224-84s91.8-84,224-84c51,0,95.2,6.7,131.6,16.8L423.9,312
	c-12.9,12.9,7.3,32.5,19.6,19.6l67.2-67.2C551,281.2,574,301.9,574,322L574,322z"/>
<path d="M304.1,181.5c17.4,5,25.2-21.8,7.8-26.9l-196-56c-17.4-5-25.2,21.8-7.8,26.9L304.1,181.5z"/>
</svg>
