<?xml version="1.0" encoding="utf-8"?>
<!-- Generator: Adobe Illustrator 21.0.0, SVG Export Plug-In . SVG Version: 6.00 Build 0)  -->
<svg version="1.1" id="Layer_1" xmlns="http://www.w3.org/2000/svg" xmlns:xlink="http://www.w3.org/1999/xlink" x="0px" y="0px"
	 viewBox="0 0 700 700" style="enable-background:new 0 0 700 700;" xml:space="preserve">
<path d="M590.2,153.8c-6.7-1.1-13.4,2.8-15.7,9.5c-12.3,37-66.6,58.8-175.8,68.9v-64.4c0-17.9-28-17.9-28,0v66.1
	c-37.5,2.2-80.6,3.4-129.9,3.9c-76.2,0-140,60.5-142.8,135c-1.1,38.6,12.3,74.5,39.2,102.5c26.9,27.4,62.2,42.6,101.4,42.6l224-7.3
	c48.2-0.6,86.8-39.2,86.8-87.4c0-12.3-2.8-24.1-7.3-34.7c17.4,9.5,27.4,21.3,32.5,35.3c5,14.6,27.4,11.2,27.4-4.5l0-251.4
	C602,161.1,597,155,590.2,153.8C583.5,152.7,597,155,590.2,153.8C583.5,152.7,597,155,590.2,153.8L590.2,153.8z M462,483.1
	C461.4,483.1,461.4,483.1,462,483.1l-28,1.1l-196,6.2c-30.8,0-59.4-12.3-80.6-34.2s-32.5-51-31.4-81.8
	c2.2-59.4,53.8-107.5,114.8-108.1c49.8,0,94.1-1.1,132.7-3.9c5.6,19.6,20.2,35.8,39.8,43.1l11.2,3.9c11.2,3.9,19,12.9,22.4,24.1
	c-53.2-7.3-121-11.2-206.6-11.2c-37.5,0-69.4,28.6-71.7,65c-1.1,19.6,5.6,38.1,18.5,52.6c13.4,14,31.9,22.4,51,22.4h217.3
	c2.2,0,4.5,0,6.7-0.6c19-2.8,34.2-18.5,35.8-37.5c1.1-11.8-2.8-23.5-10.6-32.5c-6.7-7.3-15.7-11.8-25.2-13.4c-1.7,0-3.9-0.6-5.6-0.6
	l-218.4,0c-7.8,0-14,6.2-14,14s6.2,14,14,14h48.7c0,7.8,6.2,14,14,14s14-6.2,14-14h7.3c0,7.8,6.2,14,14,14s14-6.2,14-14h7.3
	c0,7.8,6.2,14,14,14s14-6.2,14-14h7.3c0,7.8,6.2,14,14,14s14-6.2,14-14h35.8c3.9,0,7.8,1.7,10.6,4.5c2.8,2.8,3.9,6.7,3.4,10.6
	c-0.6,7.3-7.3,12.3-15.1,12.3H238c-11.8,0-22.4-4.5-30.8-13.4c-7.8-8.4-11.8-19.6-11.2-31.4c1.7-21.8,20.7-39.2,43.7-39.2
	c92.4,0,225.7,9,243,17.9c6.7,3.9,14.6,7.3,20.2,12.9c11.8,11.2,18.5,26.9,18.5,42.6C521.4,456.2,495,483.1,462,483.1L462,483.1z
	 M574,376.7c-20.7-17.4-52.6-29.7-98-38.6c-2.2-24.6-18.5-46.5-42-54.9l-11.2-3.9c-9-3.4-16.2-10.1-20.2-19
	c85.7-8.4,140.6-23.5,171.4-49.3L574,376.7z"/>
</svg>
